<svg width="30" height="30" viewBox="0 0 30 30" fill="none" xmlns="http://www.w3.org/2000/svg">
<path d="M5.35 3.3001C5.52728 3.3001 5.70283 3.26518 5.86662 3.19734C6.03041 3.12949 6.17923 3.03005 6.30459 2.90469C6.42995 2.77933 6.52939 2.63051 6.59723 2.46672C6.66508 2.30293 6.7 2.12738 6.7 1.9501C6.7 1.77281 6.66508 1.59726 6.59723 1.43347C6.52939 1.26969 6.42995 1.12086 6.30459 0.995503C6.17923 0.870144 6.03041 0.770704 5.86662 0.70286C5.70283 0.635016 5.52728 0.600098 5.35 0.600098C4.99195 0.600098 4.64858 0.742329 4.3954 0.995503C4.14223 1.24868 4 1.59206 4 1.9501C4 2.30814 4.14223 2.65152 4.3954 2.90469C4.64858 3.15787 4.99195 3.3001 5.35 3.3001ZM9.562 8.0737C9.8029 6.96087 10.3042 5.92103 11.0248 5.03948C11.7454 4.15792 12.6648 3.45979 13.7075 3.00236C14.7501 2.54494 15.8864 2.34125 17.023 2.40801C18.1597 2.47477 19.2643 2.81009 20.2463 3.38644C21.2282 3.96279 22.0595 4.76375 22.672 5.7236C23.2844 6.68345 23.6605 7.77484 23.7695 8.90821C23.8785 10.0416 23.7172 11.1846 23.2988 12.2436C22.8804 13.3026 22.217 14.2472 21.3628 15.0001C22.2155 15.7531 22.8776 16.6975 23.2949 17.7558C23.7123 18.8141 23.8728 19.9562 23.7636 21.0885C23.6543 22.2209 23.2783 23.3112 22.6663 24.2702C22.0543 25.2292 21.2238 26.0295 20.2429 26.6055C19.2619 27.1816 18.1584 27.517 17.0228 27.5843C15.8872 27.6516 14.7518 27.4489 13.7096 26.9927C12.6675 26.5365 11.7483 25.8399 11.0274 24.9599C10.3064 24.0799 9.80424 23.0416 9.562 21.9301C8.49133 22.2324 7.36517 22.2825 6.27189 22.0764C5.17861 21.8703 4.14797 21.4137 3.26082 20.7423C2.37368 20.071 1.65418 19.2032 1.15879 18.2071C0.663392 17.2109 0.405579 16.1135 0.405579 15.001C0.405579 13.8885 0.663392 12.7911 1.15879 11.7949C1.65418 10.7988 2.37368 9.93099 3.26082 9.25965C4.14797 8.5883 5.17861 8.13168 6.27189 7.9256C7.36517 7.71952 8.49133 7.7714 9.562 8.0737ZM5.35 29.4001C5.70804 29.4001 6.05142 29.2579 6.30459 29.0047C6.55777 28.7515 6.7 28.4081 6.7 28.0501C6.7 27.6921 6.55777 27.3487 6.30459 27.0955C6.05142 26.8423 5.70804 26.7001 5.35 26.7001C4.99195 26.7001 4.64858 26.8423 4.3954 27.0955C4.14223 27.3487 4 27.6921 4 28.0501C4 28.4081 4.14223 28.7515 4.3954 29.0047C4.64858 29.2579 4.99195 29.4001 5.35 29.4001ZM29.2 15.0001C29.2 15.3581 29.0578 15.7015 28.8046 15.9547C28.5514 16.2079 28.208 16.3501 27.85 16.3501C27.492 16.3501 27.1486 16.2079 26.8954 15.9547C26.6422 15.7015 26.5 15.3581 26.5 15.0001C26.5 14.6421 26.6422 14.2987 26.8954 14.0455C27.1486 13.7923 27.492 13.6501 27.85 13.6501C28.208 13.6501 28.5514 13.7923 28.8046 14.0455C29.0578 14.2987 29.2 14.6421 29.2 15.0001Z" fill="#608977"/>
</svg>
